<svg id="R_" data-name="R°" xmlns="http://www.w3.org/2000/svg" viewBox="0 0 114.941 113.386">
  <g>
    <path id="contour_extérieur" data-name="contour extérieur" d="M129.4,133.228a4.589,4.589,0,0,1-1.733-.315l-6.3-2.585c-.594.01-1.22.01-1.862,0l-6.3,2.578a5.455,5.455,0,0,1-5.257-.93l-4.984-4.539c-.641-.219-1.271-.448-1.873-.68l-6.728.265a5.451,5.451,0,0,1-4.622-2.672l-3.141-5.989c-.251-.2-.5-.406-.75-.615s-.5-.424-.742-.639l-6.439-2.06a5.456,5.456,0,0,1-3.429-4.091l-.9-6.677c-.336-.559-.669-1.139-.992-1.724l-5.33-4.126A5.455,5.455,0,0,1,66.2,93.411l1.454-6.656c-.12-.624-.227-1.235-.318-1.818L63.7,79.171a5.457,5.457,0,0,1,0-5.339l3.667-5.8c.091-.565.2-1.149.31-1.738l-1.457-6.7a5.456,5.456,0,0,1,1.829-5.017l5.486-4.235c.281-.5.55-.965.817-1.41l.934-6.869a5.456,5.456,0,0,1,3.434-4.088L85.4,35.849c.366-.315.75-.637,1.145-.958l3.263-6.2a5.444,5.444,0,0,1,4.625-2.666l7.07.287c.438-.164.866-.319,1.276-.461l5.243-4.764a5.458,5.458,0,0,1,5.259-.925l6.617,2.718q.611-.006,1.222,0l6.62-2.71a5.454,5.454,0,0,1,5.258.93l5.293,4.82q.568.2,1.135.415l7.156-.283a5.449,5.449,0,0,1,4.622,2.672l3.349,6.385.123.1c.1.084.208.169.311.255s.193.164.288.248l.129.111,6.87,2.2a5.457,5.457,0,0,1,3.43,4.092l.956,7.1q.309.522.606,1.049l5.661,4.382a5.453,5.453,0,0,1,1.823,5.018l-1.526,6.982q.115.609.216,1.22l3.812,6.039a5.459,5.459,0,0,1,0,5.34l-3.779,5.971c-.07.437-.149.884-.239,1.365l1.5,6.9a5.458,5.458,0,0,1-1.829,5.016l-5.535,4.274c-.248.444-.5.886-.759,1.315l-.942,6.933a5.459,5.459,0,0,1-3.435,4.088l-6.6,2.1c-.385.336-.8.685-1.267,1.066l-3.218,6.119a5.44,5.44,0,0,1-4.626,2.667l-6.841-.277c-.574.219-1.141.426-1.686.614l-5.063,4.6A5.415,5.415,0,0,1,129.4,133.228Zm-7.927-3.45.053.021,6.349,2.608a4.859,4.859,0,0,0,4.682-.823l5.147-4.677.054-.018c.571-.2,1.168-.414,1.773-.646l.053-.02,6.955.282a4.862,4.862,0,0,0,4.118-2.375l3.27-6.218.043-.035c.5-.405.935-.774,1.34-1.127l.043-.037.054-.017,6.65-2.119a4.86,4.86,0,0,0,3.058-3.64l.957-7.043.029-.048c.272-.455.543-.926.807-1.4l.027-.049.045-.034,5.579-4.308a4.856,4.856,0,0,0,1.628-4.466l-1.523-7.011.01-.054c.1-.517.182-1,.256-1.46l.009-.055,3.839-6.068a4.858,4.858,0,0,0,0-4.753l-3.872-6.133L172.9,68q-.11-.66-.233-1.317l-.011-.054.012-.055,1.538-7.037a4.856,4.856,0,0,0-1.624-4.468l-5.748-4.45-.027-.048q-.321-.572-.655-1.135l-.029-.048-.971-7.205a4.858,4.858,0,0,0-3.053-3.643l-6.977-2.232-.215-.186c-.094-.081-.187-.162-.282-.242s-.2-.166-.3-.249l-.211-.172-3.4-6.484A4.857,4.857,0,0,0,146.6,26.6l-7.268.287-.052-.019q-.612-.233-1.227-.449L138,26.4,132.624,21.5a4.856,4.856,0,0,0-4.681-.828l-6.724,2.752h-.056q-.658-.009-1.32,0h-.055l-.052-.021-6.668-2.739a4.856,4.856,0,0,0-4.682.823l-5.327,4.84-.053.018c-.437.151-.9.317-1.367.494l-.052.019-7.182-.291a4.838,4.838,0,0,0-4.118,2.374l-3.315,6.3-.043.036c-.421.342-.831.685-1.218,1.019l-.043.036L78.887,38.5a4.857,4.857,0,0,0-3.057,3.64l-.949,6.981-.029.048c-.283.469-.567.957-.866,1.492l-.027.049-.044.034-5.53,4.27a4.857,4.857,0,0,0-1.629,4.466l1.481,6.815-.011.056c-.121.62-.231,1.236-.326,1.83l-.008.056-3.728,5.89a4.86,4.86,0,0,0,0,4.754l3.7,5.863.008.056c.095.61.208,1.253.334,1.91l.011.055-1.478,6.766A4.858,4.858,0,0,0,68.36,98l5.421,4.2.027.05c.337.614.686,1.221,1.038,1.805l.029.048.915,6.788a4.859,4.859,0,0,0,3.053,3.644l6.547,2.094.042.037c.271.236.522.455.778.67s.507.418.762.624l.068.055,3.193,6.089a4.86,4.86,0,0,0,4.116,2.38l6.841-.27.053.021c.628.242,1.287.482,1.959.711l.054.019,5.067,4.615a4.858,4.858,0,0,0,4.682.828l6.4-2.621h.056c.676.012,1.334.012,1.956,0Z" transform="translate(-63.002 -19.843)" style="fill: #94be4f"/>
    <g id="contour_PREMIUM_CBD_SHOP" data-name="contour + PREMIUM CBD SHOP">
      <path d="M167.683,83.162a47.674,47.674,0,0,1-94.421,0h-.536a48.206,48.206,0,0,0,95.5,0ZM120.471,28.326A48.293,48.293,0,0,0,73.18,67.147h.551a47.674,47.674,0,0,1,93.48,0h.554A48.294,48.294,0,0,0,120.471,28.326Z" transform="translate(-63.002 -19.843)" style="fill: #fff"/>
      <g>
        <path d="M156.39,96.68l-.289.5,4.862,2.775.286-.5Z" transform="translate(-63.002 -19.843)" style="fill: #94be4f"/>
        <path d="M157.285,94.991l-.261.515,4.983,2.546.264-.515Z" transform="translate(-63.002 -19.843)" style="fill: #94be4f"/>
        <path d="M158.1,93.263l-.239.529,5.1,2.31.24-.526Z" transform="translate(-63.002 -19.843)" style="fill: #94be4f"/>
        <path d="M158.837,91.5l-.212.536,5.2,2.07.212-.536Z" transform="translate(-63.002 -19.843)" style="fill: #94be4f"/>
        <path d="M159.489,89.709l-.187.547,5.293,1.823.187-.547Z" transform="translate(-63.002 -19.843)" style="fill: #94be4f"/>
        <path d="M160.057,87.883l-.162.557,5.37,1.572.165-.553Z" transform="translate(-63.002 -19.843)" style="fill: #94be4f"/>
        <path d="M160.54,86.039l-.138.564,5.437,1.322.138-.564Z" transform="translate(-63.002 -19.843)" style="fill: #94be4f"/>
        <path d="M160.935,84.17l-.113.568,5.5,1.068.109-.568Z" transform="translate(-63.002 -19.843)" style="fill: #94be4f"/>
        <path d="M165.462,63.762l-5.395,1.5.156.557,5.394-1.495Z" transform="translate(-63.002 -19.843)" style="fill: #94be4f"/>
        <path d="M164.82,61.692,159.5,63.437l.18.55L165,62.242Z" transform="translate(-63.002 -19.843)" style="fill: #94be4f"/>
        <path d="M164.083,59.647l-5.232,1.992.208.539,5.229-1.992Z" transform="translate(-63.002 -19.843)" style="fill: #94be4f"/>
        <path d="M163.248,57.641l-5.13,2.231.229.533,5.134-2.236Z" transform="translate(-63.002 -19.843)" style="fill: #94be4f"/>
        <path d="M162.324,55.673,157.3,58.145l.254.518,5.021-2.472Z" transform="translate(-63.002 -19.843)" style="fill: #94be4f"/>
        <path d="M161.309,53.758l-4.9,2.7.279.508,4.9-2.7Z" transform="translate(-63.002 -19.843)" style="fill: #94be4f"/>
        <path d="M160.205,51.89l-4.771,2.926.3.49,4.771-2.926Z" transform="translate(-63.002 -19.843)" style="fill: #94be4f"/>
        <path d="M159.017,50.07l-4.63,3.145.324.48,4.63-3.149Z" transform="translate(-63.002 -19.843)" style="fill: #94be4f"/>
        <path d="M157.744,48.311l-4.478,3.357.345.461,4.478-3.356Z" transform="translate(-63.002 -19.843)" style="fill: #94be4f"/>
        <path d="M156.393,46.615l-4.319,3.561.367.444,4.319-3.557Z" transform="translate(-63.002 -19.843)" style="fill: #94be4f"/>
        <path d="M154.965,44.982l-4.15,3.755.388.427,4.15-3.755Z" transform="translate(-63.002 -19.843)" style="fill: #94be4f"/>
        <path d="M153.463,43.417l-3.974,3.942.41.409,3.973-3.942Z" transform="translate(-63.002 -19.843)" style="fill: #94be4f"/>
        <path d="M151.887,41.918,148.1,46.04l.427.392,3.787-4.122Z" transform="translate(-63.002 -19.843)" style="fill: #94be4f"/>
        <path d="M150.251,40.5l-3.593,4.291.444.37,3.593-4.291Z" transform="translate(-63.002 -19.843)" style="fill: #94be4f"/>
        <path d="M148.552,39.157l-3.392,4.454.458.352,3.392-4.453Z" transform="translate(-63.002 -19.843)" style="fill: #94be4f"/>
        <path d="M146.789,37.9,143.6,42.5l.476.328,3.18-4.605Z" transform="translate(-63.002 -19.843)" style="fill: #94be4f"/>
        <path d="M144.962,36.714,142,41.46l.49.307,2.962-4.75Z" transform="translate(-63.002 -19.843)" style="fill: #94be4f"/>
        <path d="M143.09,35.617l-2.74,4.88.5.282,2.74-4.88Z" transform="translate(-63.002 -19.843)" style="fill: #94be4f"/>
        <path d="M141.165,34.609l-2.511,5,.515.258,2.51-5Z" transform="translate(-63.002 -19.843)" style="fill: #94be4f"/>
        <path d="M139.194,33.692l-2.275,5.113.529.236,2.275-5.113Z" transform="translate(-63.002 -19.843)" style="fill: #94be4f"/>
        <path d="M137.184,32.867l-2.031,5.215.536.212,2.034-5.215Z" transform="translate(-63.002 -19.843)" style="fill: #94be4f"/>
        <path d="M135.139,32.141l-1.788,5.3.547.183,1.787-5.3Z" transform="translate(-63.002 -19.843)" style="fill: #94be4f"/>
        <path d="M133.066,31.51l-1.538,5.38.557.159,1.538-5.381Z" transform="translate(-63.002 -19.843)" style="fill: #94be4f"/>
        <path d="M130.953,30.974l-1.283,5.447.564.131,1.284-5.448Z" transform="translate(-63.002 -19.843)" style="fill: #94be4f"/>
        <path d="M128.834,30.54l-1.029,5.5.567.106,1.03-5.5Z" transform="translate(-63.002 -19.843)" style="fill: #94be4f"/>
        <path d="M126.691,30.2l-.773,5.547.572.077.772-5.542Z" transform="translate(-63.002 -19.843)" style="fill: #94be4f"/>
        <path d="M124.529,29.965l-.515,5.575.575.053.515-5.575Z" transform="translate(-63.002 -19.843)" style="fill: #94be4f"/>
        <path d="M122.368,29.831l-.258,5.592.579.025.254-5.592Z" transform="translate(-63.002 -19.843)" style="fill: #94be4f"/>
        <path d="M120.238,29.789l-.092,5.6.579.01.091-5.6Z" transform="translate(-63.002 -19.843)" style="fill: #94be4f"/>
        <path d="M118.609,29.831l-.578.025.254,5.592.578-.028Z" transform="translate(-63.002 -19.843)" style="fill: #94be4f"/>
        <path d="M116.444,29.965l-.575.053.508,5.571.578-.053Z" transform="translate(-63.002 -19.843)" style="fill: #94be4f"/>
        <path d="M114.286,30.2l-.571.081.765,5.543.575-.078Z" transform="translate(-63.002 -19.843)" style="fill: #94be4f"/>
        <path d="M112.142,30.533l-.571.106,1.026,5.5.568-.106Z" transform="translate(-63.002 -19.843)" style="fill: #94be4f"/>
        <path d="M110.013,30.967l-.564.134,1.28,5.447.564-.13Z" transform="translate(-63.002 -19.843)" style="fill: #94be4f"/>
        <path d="M107.908,31.5l-.554.159,1.534,5.384.554-.159Z" transform="translate(-63.002 -19.843)" style="fill: #94be4f"/>
        <path d="M105.827,32.134l-.546.183,1.784,5.307.547-.187Z" transform="translate(-63.002 -19.843)" style="fill: #94be4f"/>
        <path d="M103.779,32.86l-.536.212,2.031,5.215.536-.212Z" transform="translate(-63.002 -19.843)" style="fill: #94be4f"/>
        <path d="M101.769,33.685l-.525.233,2.27,5.116.529-.236Z" transform="translate(-63.002 -19.843)" style="fill: #94be4f"/>
        <path d="M99.8,34.6l-.519.261,2.511,5,.515-.261Z" transform="translate(-63.002 -19.843)" style="fill: #94be4f"/>
        <path d="M97.88,35.6l-.5.282,2.739,4.884.505-.286Z" transform="translate(-63.002 -19.843)" style="fill: #94be4f"/>
        <path d="M96.008,36.7l-.49.307,2.961,4.75.49-.307Z" transform="translate(-63.002 -19.843)" style="fill: #94be4f"/>
        <path d="M94.181,37.878l-.472.327,3.177,4.609.476-.328Z" transform="translate(-63.002 -19.843)" style="fill: #94be4f"/>
        <path d="M92.418,39.14l-.458.349,3.388,4.457.459-.349Z" transform="translate(-63.002 -19.843)" style="fill: #94be4f"/>
        <path d="M90.715,40.483l-.441.37,3.59,4.292.444-.371Z" transform="translate(-63.002 -19.843)" style="fill: #94be4f"/>
        <path d="M89.072,41.9l-.427.392,3.787,4.121.427-.391Z" transform="translate(-63.002 -19.843)" style="fill: #94be4f"/>
        <path d="M87.5,43.4l-.409.409,3.97,3.945.409-.412Z" transform="translate(-63.002 -19.843)" style="fill: #94be4f"/>
        <path d="M86,44.961l-.387.43,4.15,3.755.387-.426Z" transform="translate(-63.002 -19.843)" style="fill: #94be4f"/>
        <path d="M84.569,46.594l-.366.444L88.522,50.6l.367-.444Z" transform="translate(-63.002 -19.843)" style="fill: #94be4f"/>
        <path d="M83.219,48.286l-.346.462,4.478,3.36.346-.462Z" transform="translate(-63.002 -19.843)" style="fill: #94be4f"/>
        <path d="M81.946,50.046l-.324.476,4.629,3.148.325-.476Z" transform="translate(-63.002 -19.843)" style="fill: #94be4f"/>
        <path d="M80.754,51.861l-.3.494,4.771,2.93.3-.493Z" transform="translate(-63.002 -19.843)" style="fill: #94be4f"/>
        <path d="M79.651,53.73l-.279.508,4.9,2.7.282-.507Z" transform="translate(-63.002 -19.843)" style="fill: #94be4f"/>
        <path d="M78.632,55.655l-.254.519L83.4,58.645l.258-.518Z" transform="translate(-63.002 -19.843)" style="fill: #94be4f"/>
        <path d="M77.708,57.612l-.229.529,5.13,2.239.229-.532Z" transform="translate(-63.002 -19.843)" style="fill: #94be4f"/>
        <path d="M76.872,59.619l-.2.539,5.229,2,.2-.54Z" transform="translate(-63.002 -19.843)" style="fill: #94be4f"/>
        <path d="M76.135,61.664l-.183.55,5.317,1.745.18-.546Z" transform="translate(-63.002 -19.843)" style="fill: #94be4f"/>
        <path d="M75.49,63.74l-.155.558,5.4,1.5.151-.557Z" transform="translate(-63.002 -19.843)" style="fill: #94be4f"/>
        <path d="M80.01,84.159l-5.493,1.069.109.564,5.494-1.065Z" transform="translate(-63.002 -19.843)" style="fill: #94be4f"/>
        <path d="M80.405,86.028l-5.44,1.322.137.561,5.437-1.319Z" transform="translate(-63.002 -19.843)" style="fill: #94be4f"/>
        <path d="M80.885,87.872l-5.37,1.576.162.554,5.37-1.573Z" transform="translate(-63.002 -19.843)" style="fill: #94be4f"/>
        <path d="M81.452,89.7,76.16,91.522l.187.546,5.292-1.823Z" transform="translate(-63.002 -19.843)" style="fill: #94be4f"/>
        <path d="M82.1,91.493l-5.2,2.07.211.536,5.2-2.07Z" transform="translate(-63.002 -19.843)" style="fill: #94be4f"/>
        <path d="M82.842,93.263l-5.1,2.31.24.525,5.095-2.309Z" transform="translate(-63.002 -19.843)" style="fill: #94be4f"/>
        <path d="M83.656,94.988l-4.982,2.545.261.515L83.921,95.5Z" transform="translate(-63.002 -19.843)" style="fill: #94be4f"/>
        <path d="M84.552,96.673l-4.863,2.771.29.5,4.858-2.775Z" transform="translate(-63.002 -19.843)" style="fill: #94be4f"/>
      </g>
      <path d="M120.471,36.365A40.242,40.242,0,0,0,81.407,67.147h.56a39.634,39.634,0,0,1,77.011,0h.56A40.247,40.247,0,0,0,120.471,36.365Zm39.075,46.8a39.631,39.631,0,0,1-78.146,0h-.551a40.174,40.174,0,0,0,79.247,0Z" transform="translate(-63.002 -19.843)" style="fill: #fff"/>
      <g>
        <path d="M87.432,101.93l-1.678-2.26-3.709,2.761.49.659,1.283-.955,1.189,1.6a1.494,1.494,0,0,0,.994.627,1.453,1.453,0,0,0,1.128-.307,1.452,1.452,0,0,0,.3-2.126Zm-.472.935a.768.768,0,0,1-.335.539.784.784,0,0,1-.617.169.884.884,0,0,1-.547-.37l-1.1-1.474,1.3-.969,1.1,1.473A.879.879,0,0,1,86.96,102.865Z" transform="translate(-63.002 -19.843)" style="fill: #fff"/>
        <path d="M91.05,106.042l-1.96-2.021-3.318,3.216.571.592,1.149-1.114L88.73,108l-.413,1.869.6.62.416-1.995a1.382,1.382,0,0,0,.868.134,1.523,1.523,0,0,0,.821-.434,1.478,1.478,0,0,0,.487-1.065A1.5,1.5,0,0,0,91.05,106.042Zm-.61,1.565a.782.782,0,0,1-.589.25.875.875,0,0,1-.592-.3l-1.277-1.319,1.164-1.128,1.28,1.318a.9.9,0,0,1,.279.6A.777.777,0,0,1,90.44,107.607Z" transform="translate(-63.002 -19.843)" style="fill: #fff"/>
        <path d="M95.359,110.731l.451-.561-2.874-2.316-2.9,3.6,2.874,2.313.451-.56-2.235-1.8.782-.974,1.873,1.506.43-.536L92.341,109.9l.782-.969Z" transform="translate(-63.002 -19.843)" style="fill: #fff"/>
        <path d="M101.071,113.471l-3.237,1.495-.257-3.558-.78-.458-2.351,3.977.708.42,1.781-3.015.219,3.314.409.244,3.007-1.411-1.777,3.015.7.419,2.352-3.98Z" transform="translate(-63.002 -19.843)" style="fill: #fff"/>
        <path d="M103.105,114.419l-1.886,4.221.747.335,1.89-4.217Z" transform="translate(-63.002 -19.843)" style="fill: #fff"/>
        <path d="M108.6,116.514l-.92,2.746a.868.868,0,0,1-.261.392.926.926,0,0,1-.419.211,1.69,1.69,0,0,1-.508.039,2.1,2.1,0,0,1-.543-.113,2.264,2.264,0,0,1-.5-.236,1.807,1.807,0,0,1-.381-.338,1.018,1.018,0,0,1-.208-.42.871.871,0,0,1,.029-.473l.92-2.743-.779-.264-.959,2.859a1.52,1.52,0,0,0-.075.656,1.366,1.366,0,0,0,.2.564,1.991,1.991,0,0,0,.4.459,2.81,2.81,0,0,0,.529.363,4.279,4.279,0,0,0,.6.257,3.95,3.95,0,0,0,.624.155,2.746,2.746,0,0,0,.642.032,2.145,2.145,0,0,0,.6-.123,1.422,1.422,0,0,0,.5-.335,1.46,1.46,0,0,0,.335-.568l.959-2.856Z" transform="translate(-63.002 -19.843)" style="fill: #fff"/>
        <path d="M115.429,117.945l-2.49,2.553-1.509-3.233-.892-.152-.776,4.559.811.138.586-3.452,1.385,3.021.473.078,2.306-2.391-.589,3.452.811.138.776-4.559Z" transform="translate(-63.002 -19.843)" style="fill: #fff"/>
        <path d="M124.222,121.087a1.566,1.566,0,0,1-.694.7,2.607,2.607,0,0,1-1.107.283,2.688,2.688,0,0,1-1.03-.149,1.738,1.738,0,0,1-.754-.528,1.412,1.412,0,0,1-.307-.843,1.388,1.388,0,0,1,.239-.864,1.684,1.684,0,0,1,.709-.585,2.657,2.657,0,0,1,1.012-.233,2.546,2.546,0,0,1,1.128.2,1.562,1.562,0,0,1,.752.642l.8-.176a2.261,2.261,0,0,0-1.054-1.076,3.261,3.261,0,0,0-1.654-.345,3.431,3.431,0,0,0-1.417.349,2.467,2.467,0,0,0-1,.874,2.162,2.162,0,0,0,.1,2.469,2.476,2.476,0,0,0,1.068.793,3.441,3.441,0,0,0,1.439.233,3.263,3.263,0,0,0,1.622-.476,2.233,2.233,0,0,0,.962-1.157Z" transform="translate(-63.002 -19.843)" style="fill: #fff"/>
        <path d="M130.714,120.494a1.086,1.086,0,0,0-.42-.694,1.152,1.152,0,0,0-.814-.212,1.078,1.078,0,0,0,.56-.486,1.1,1.1,0,0,0,.095-.73,1.062,1.062,0,0,0-.225-.5,1.1,1.1,0,0,0-.423-.314,1.872,1.872,0,0,0-.54-.127,2.5,2.5,0,0,0-.606.032l-2.535.458.818,4.548,2.69-.483a2.34,2.34,0,0,0,.582-.183,1.974,1.974,0,0,0,.476-.31,1.1,1.1,0,0,0,.3-.445A1.026,1.026,0,0,0,130.714,120.494Zm-4-2.161,1.679-.3a.92.92,0,0,1,.613.095.633.633,0,0,1,.342.458.615.615,0,0,1-.173.55,1.064,1.064,0,0,1-.613.314l-1.594.286Zm2.983,2.75a.929.929,0,0,1-.539.3l-1.834.327-.25-1.4,1.752-.317a1.07,1.07,0,0,1,.681.081.632.632,0,0,1,.19,1Z" transform="translate(-63.002 -19.843)" style="fill: #fff"/>
        <path d="M136.821,117.459a2.012,2.012,0,0,0-.4-.706,1.925,1.925,0,0,0-.6-.479,2.793,2.793,0,0,0-.755-.25,3.064,3.064,0,0,0-.849-.032,3.751,3.751,0,0,0-.889.187l-2.158.715,1.453,4.387,2.158-.713a3.978,3.978,0,0,0,.825-.38,3.034,3.034,0,0,0,.663-.536,2.557,2.557,0,0,0,.454-.649,1.983,1.983,0,0,0,.2-.748A2.064,2.064,0,0,0,136.821,117.459Zm-.7.945a1.443,1.443,0,0,1-.283.624,2.256,2.256,0,0,1-.546.5,3.015,3.015,0,0,1-.737.356l-1.375.455-1-3.021,1.375-.455a2.975,2.975,0,0,1,.8-.155,2.363,2.363,0,0,1,.736.077,1.461,1.461,0,0,1,.6.332,1.332,1.332,0,0,1,.374.588A1.364,1.364,0,0,1,136.123,118.4Z" transform="translate(-63.002 -19.843)" style="fill: #fff"/>
        <path d="M144.345,114.585a.92.92,0,0,0-.268-.31.907.907,0,0,0-.352-.159,1.342,1.342,0,0,0-.448-.011,3.581,3.581,0,0,0-.547.113c-.19.053-.405.127-.652.222l-.226.1a6.054,6.054,0,0,1-.969.345c-.283.049-.469-.01-.565-.18a.6.6,0,0,1,.039-.659,2.049,2.049,0,0,1,.755-.645,1.822,1.822,0,0,1,.952-.289.68.68,0,0,1,.589.31l.68-.385a1.289,1.289,0,0,0-.987-.627,2.616,2.616,0,0,0-1.5.419,3.089,3.089,0,0,0-1.238,1.094,1.133,1.133,0,0,0,.011,1.156.8.8,0,0,0,.617.434,3,3,0,0,0,1.142-.18c.092-.028.208-.067.342-.116s.251-.092.349-.127.208-.074.332-.113a3.16,3.16,0,0,1,.328-.095,1.867,1.867,0,0,1,.285-.057,1.081,1.081,0,0,1,.254-.01.571.571,0,0,1,.194.06.337.337,0,0,1,.138.137.661.661,0,0,1-.025.677,1.805,1.805,0,0,1-.726.663,2.264,2.264,0,0,1-1.044.342.736.736,0,0,1-.656-.321l-.73.406a1.228,1.228,0,0,0,1.072.673,3.241,3.241,0,0,0,1.678-.511,2.745,2.745,0,0,0,1.206-1.136A1.252,1.252,0,0,0,144.345,114.585Z" transform="translate(-63.002 -19.843)" style="fill: #fff"/>
        <path d="M147.388,108.422l-.656.493,1.178,1.559-2.37,1.787-1.177-1.558-.656.5,2.785,3.688.656-.493-1.174-1.559,2.37-1.788,1.174,1.555.656-.493Z" transform="translate(-63.002 -19.843)" style="fill: #fff"/>
        <path d="M154.246,106.3a2.179,2.179,0,0,0-1.372-1.361,2.281,2.281,0,0,0-.962-.092,2.947,2.947,0,0,0-.977.314,3.53,3.53,0,0,0-.9.663,3.451,3.451,0,0,0-.8,1.22,2.479,2.479,0,0,0-.138,1.322,2.035,2.035,0,0,0,.607,1.146,2.08,2.08,0,0,0,1.149.6,2.526,2.526,0,0,0,1.322-.148,3.491,3.491,0,0,0,1.213-.811,3.558,3.558,0,0,0,.656-.906,2.953,2.953,0,0,0,.3-.981A2.169,2.169,0,0,0,154.246,106.3Zm-.814,1.453a2.642,2.642,0,0,1-.582.86,2.609,2.609,0,0,1-.857.592,1.7,1.7,0,0,1-.91.127,1.461,1.461,0,0,1-1.213-1.2,1.669,1.669,0,0,1,.12-.91,2.616,2.616,0,0,1,.582-.86,2.7,2.7,0,0,1,.857-.6,1.728,1.728,0,0,1,.913-.127,1.387,1.387,0,0,1,.8.406,1.353,1.353,0,0,1,.412.8A1.692,1.692,0,0,1,153.432,107.752Z" transform="translate(-63.002 -19.843)" style="fill: #fff"/>
        <path d="M156.732,102.667a1.508,1.508,0,0,0,.321-1.132,1.514,1.514,0,0,0-2.744-.673l-1.685,2.253,3.706,2.764.493-.659-1.283-.956Zm-3.036.219,1.1-1.471a.856.856,0,0,1,.546-.37.763.763,0,0,1,.614.169.788.788,0,0,1,.338.54.864.864,0,0,1-.2.631l-1.1,1.47Z" transform="translate(-63.002 -19.843)" style="fill: #fff"/>
      </g>
    </g>
    <path id="SINCE_2021" data-name="SINCE 2021" d="M108.678,102.842h-.363a.415.415,0,0,0-.218-.356,1.154,1.154,0,0,0-.613-.135,1.292,1.292,0,0,0-.615.122.382.382,0,0,0-.222.352.3.3,0,0,0,.011.081.147.147,0,0,0,.038.069.747.747,0,0,0,.054.057.268.268,0,0,0,.08.047c.034.015.065.027.093.038a.725.725,0,0,0,.115.031l.126.026c.035.007.083.014.145.022l.152.02c.039.005.095.012.167.019.156.022.29.045.4.071a2.383,2.383,0,0,1,.311.093.792.792,0,0,1,.227.128.521.521,0,0,1,.132.173.537.537,0,0,1,.047.228.7.7,0,0,1-.316.6,1.565,1.565,0,0,1-.908.226,1.838,1.838,0,0,1-.971-.214.689.689,0,0,1-.344-.623h.387a.456.456,0,0,0,.256.388,1.39,1.39,0,0,0,.676.137,1.138,1.138,0,0,0,.607-.141.426.426,0,0,0,.22-.373.243.243,0,0,0-.02-.1.223.223,0,0,0-.065-.084.946.946,0,0,0-.092-.068.591.591,0,0,0-.131-.057l-.146-.044c-.042-.012-.1-.025-.173-.039l-.181-.033-.2-.033-.195-.032a1.9,1.9,0,0,1-.669-.223.448.448,0,0,1-.2-.4.625.625,0,0,1,.314-.567,1.757,1.757,0,0,1,.908-.193,1.5,1.5,0,0,1,.86.2A.7.7,0,0,1,108.678,102.842Zm1.557-.756v2.645h-.382v-2.645Zm3.516,0h.381v2.645H113.7l-1.867-2.165v2.165h-.381v-2.645h.432l1.867,2.171Zm2.968,2.32a1.535,1.535,0,0,0,.679-.145.974.974,0,0,0,.443-.408l.372.07a1.283,1.283,0,0,1-.575.61,1.865,1.865,0,0,1-.919.225,1.98,1.98,0,0,1-.816-.166,1.409,1.409,0,0,1-.588-.478,1.246,1.246,0,0,1,0-1.411,1.415,1.415,0,0,1,.588-.477,1.964,1.964,0,0,1,.816-.166,1.865,1.865,0,0,1,.919.225,1.283,1.283,0,0,1,.575.61l-.372.07a.974.974,0,0,0-.443-.408,1.535,1.535,0,0,0-.679-.146,1.614,1.614,0,0,0-.627.118,1.037,1.037,0,0,0-.447.348.926.926,0,0,0,0,1.064,1.028,1.028,0,0,0,.447.347A1.6,1.6,0,0,0,116.719,104.406Zm4.556-1.985h-1.7v.829h1.43v.318h-1.43v.829h1.7v.334H119.2v-2.645h2.078Zm2.689,2.31v-.247l1.056-.9.186-.156c.041-.035.091-.079.152-.134a1.353,1.353,0,0,0,.132-.131c.028-.033.057-.071.088-.115a.374.374,0,0,0,.062-.123.369.369,0,0,0-.176-.428.808.808,0,0,0-.458-.124.792.792,0,0,0-.463.131.406.406,0,0,0-.192.339l-.355,0a.69.69,0,0,1,.285-.564,1.161,1.161,0,0,1,.727-.216,1.227,1.227,0,0,1,.722.192.635.635,0,0,1,.278.541.644.644,0,0,1-.052.259.944.944,0,0,1-.157.248,2.315,2.315,0,0,1-.212.218c-.072.064-.157.133-.256.206l-.85.673h1.587v.334Zm5.475-1.322q0,1.349-1.194,1.349t-1.194-1.349q0-1.349,1.194-1.349T129.439,103.409Zm-1.826.751a.924.924,0,0,0,1.264,0,1.594,1.594,0,0,0,0-1.5.924.924,0,0,0-1.264,0,1.594,1.594,0,0,0,0,1.5Zm2.8.571v-.247l1.056-.9.186-.156c.041-.035.092-.079.153-.134a1.353,1.353,0,0,0,.132-.131c.027-.033.057-.071.088-.115a.4.4,0,0,0,.062-.123.352.352,0,0,0,.014-.116.376.376,0,0,0-.191-.312.8.8,0,0,0-.457-.124.8.8,0,0,0-.464.131.408.408,0,0,0-.191.339l-.356,0a.691.691,0,0,1,.286-.564,1.159,1.159,0,0,1,.727-.216,1.229,1.229,0,0,1,.722.192.634.634,0,0,1,.277.541.628.628,0,0,1-.052.259.94.94,0,0,1-.156.248,2.446,2.446,0,0,1-.212.218c-.072.064-.158.133-.256.206l-.85.673h1.587v.334Zm4.323,0h-.382v-2.31l-.763.244v-.335l.763-.244h.382Z" transform="translate(-63.002 -19.843)" style="fill: #fff"/>
    <rect x="38.925" y="78.394" width="37.092" height="0.405" style="fill: #94be4f"/>
    <path id="H_FH" data-name="H&amp;FH" d="M96.682,94.755v-.3H97.8V89.531H93.074V94.46h1.12v.3H90.011v-.3h1.135V84.166H90.011v-.3h4.183v.3h-1.12v5.007H97.8V84.166h-1.12v-.3h4.183v.3H99.73V94.46h1.135v.3Zm5.052,0v-.3h1.135V84.166h-1.135v-.3h8.1v3.156h-.311c-.265-1.866-.933-2.845-2.69-2.845h-2.069v4.991h1.1c1.321.016,1.726-.56,1.9-1.85h.3v4.058h-.3c-.171-1.291-.591-1.85-1.9-1.85h-1.1v4.913h2.24c1.741,0,2.332-.715,2.674-2.814h.3v3.125ZM121,92.765h.3v.56a1.476,1.476,0,0,1-1.508,1.586c-1.166,0-1.555-.84-1.555-2.193,0-1.881-.311-3.094-2.161-3.094h-1.462V94.46h1.151v.3h-4.183v-.3h1.135V84.166h-1.135v-.3h5.007c2.472,0,3.965,1.088,3.965,2.814,0,1.337-1.135,2.379-2.721,2.768a3.045,3.045,0,0,1,2.255,3.25c0,.824.108,1.2.466,1.2.3,0,.451-.2.451-.591ZM116.132,89.3a2.562,2.562,0,0,0,.062-5.115h-1.586V89.3Zm6.032,5.458v-.3H123.3V84.166h-1.135v-.3h4.758c2.4,0,3.717,1.088,3.717,2.767a2.832,2.832,0,0,1-2.333,2.6c1.742.28,2.846,1.229,2.846,2.613,0,1.725-1.726,2.907-4.2,2.907Zm4.276-5.6c1.68,0,2.224-1.042,2.224-2.457,0-1.384-.622-2.535-2.208-2.535H125.2v4.992Zm.265,5.3a2.261,2.261,0,0,0,2.456-2.535,2.194,2.194,0,0,0-2.379-2.426H125.2V94.46Zm5.612.3v-.3h1.135V84.166h-1.135v-.3h8.1v3.156h-.311c-.264-1.866-.933-2.845-2.69-2.845h-2.068v4.991h1.1c1.322.016,1.726-.56,1.9-1.85h.3v4.058h-.3c-.171-1.291-.591-1.85-1.9-1.85h-1.1v4.913h2.239c1.742,0,2.333-.715,2.675-2.814h.295v3.125ZM149.5,87.4c-.249-1.912-1.12-3.327-3.017-3.327a1.982,1.982,0,0,0-2.223,1.959c0,3.141,5.893,1.819,5.893,5.66,0,1.881-1.571,3.219-3.825,3.219-1.711,0-2.379-.793-3.126-.793-.28,0-.435.217-.435.559h-.295V90.992h.326c.249,2.053,1.415,3.546,3.468,3.546A1.973,1.973,0,0,0,148.5,92.5c0-3.032-5.862-1.9-5.862-5.645,0-1.866,1.4-3.141,3.794-3.141,1.352,0,1.974.56,2.674.56.264,0,.42-.218.42-.56h.3V87.4ZM162.61,71.208a2.382,2.382,0,0,1,2.672-2.355c2.278,0,3.325,1.7,3.625,4h.391V68.426h-.352c0,.409-.187.67-.508.67-.839,0-1.587-.67-3.212-.67-2.881,0-4.563,1.531-4.563,3.773,0,4.506,7.049,3.142,7.049,6.788a2.373,2.373,0,0,1-2.694,2.447c-2.391,0-3.784-1.689-4.136-4.045h-.423V81.6h.356c0-.413.187-.673.522-.673.9,0,1.7.952,3.758.952,2.708,0,4.6-1.608,4.6-3.868C169.693,73.4,162.61,74.985,162.61,71.208ZM83.765,68.966v-.353H78.737v.353h1.347v6.019H74.4V68.966h1.347v-.353H70.719v.353h1.365V81.339H70.719v.356h5.028v-.356H74.4V75.415h5.684v5.924H78.737v.356h5.028v-.356H82.4V68.966Zm75.28,8.427c-.339,2.08-.924,2.789-2.648,2.789h-2.218V75.316h1.093c1.294,0,1.71.554,1.879,1.83h.293V73.13h-.293c-.169,1.277-.567,1.848-1.879,1.83h-1.093V70.017h2.049c1.741,0,2.4.969,2.665,2.82h.307V69.71h-8.022V70H152.3V80.2h-1.122v.293h8.16v-3.1Zm-11.3-7.683V70h.169c.526,0,.97.521.97,1.787v7.345l-5.62-9.425h-3.05V70h1.11v8.423c0,1.262-.447,1.77-.969,1.77h-.17v.293h2.648V80.2h-.169c-.525,0-.969-.508-.969-1.77V70.711l5.913,9.778h1.646v-8.7c0-1.266.448-1.787.97-1.787h.169V69.71ZM139.321,70V69.71h-4.158V70h1.125V80.2h-1.125v.293h4.158V80.2H138.2V70Zm-13.473-.293V70h1.125V80.2h-1.125v.293h4.175V80.2h-1.171v-4.82h1.107c1.308,0,1.71.554,1.88,1.834h.292V73.19h-.292c-.17,1.28-.572,1.834-1.88,1.834h-1.107V70.017H130.9c1.738,0,2.4.969,2.662,2.82h.306V69.71ZM111.712,70V69.71h-4.143V70h1.111V74.96H104V70h1.111V69.71h-4.143V70h1.125V80.2h-1.125v.293h4.143V80.2H104v-4.88h4.683V80.2h-1.111v.293h4.143V80.2h-1.121V70ZM95.9,75.884v.293h1.308v2.016a1.909,1.909,0,0,1-2.09,2.095c-1.989,0-2.913-2.31-2.913-5.2,0-2.955.91-5.173,3.173-5.173,1.894,0,2.726,1.4,2.973,3.293h.321V69.555h-.293c0,.338-.152.539-.412.539-.7,0-1.294-.539-2.652-.539-3.018,0-5.173,2.387-5.173,5.606,0,3.05,2.031,5.483,4.958,5.483,1.8,0,2.309-1.125,3.082-1.125.338,0,.507.169.507.878v.353h.307V76.177h1.033v-.293ZM89.033,70V69.71h-4.16V70H86V80.2H84.873v.293h4.16V80.2H87.908V70Z" transform="translate(-63.002 -19.843)" style="fill: #fff"/>
    <path id="weed_drop" data-name="weed + drop" d="M126.12,62.55a10.38,10.38,0,0,1-3.263-1.772,12.347,12.347,0,0,1-2.385-2.682,12.275,12.275,0,0,1-2.385,2.682,10.38,10.38,0,0,1-3.263,1.772,10.369,10.369,0,0,1,2.385-2.846,10.5,10.5,0,0,1,2.572-1.521,14.69,14.69,0,0,1-4.414.72,14.511,14.511,0,0,1-5.106-.971,14.49,14.49,0,0,1,5.106-.971,14.736,14.736,0,0,1,4.48.74,18.285,18.285,0,0,1-4.955-3,18.048,18.048,0,0,1-4.006-5.054,17.944,17.944,0,0,1,5.581,3.231,18.28,18.28,0,0,1,3.747,4.571,24,24,0,0,1-1.318-7.625,23.653,23.653,0,0,1,1.582-8.32,23.624,23.624,0,0,1,1.581,8.32,23.991,23.991,0,0,1-1.3,7.568,18.293,18.293,0,0,1,3.715-4.514,17.984,17.984,0,0,1,5.581-3.232,18.017,18.017,0,0,1-4.006,5.054,18.283,18.283,0,0,1-4.955,3,14.693,14.693,0,0,1,4.48-.74,14.49,14.49,0,0,1,5.106.971,14.53,14.53,0,0,1-5.106.97,14.709,14.709,0,0,1-4.415-.719,10.465,10.465,0,0,1,2.572,1.521A10.325,10.325,0,0,1,126.12,62.55Zm-6.947.005a1.475,1.475,0,1,0,2.6,0,25.862,25.862,0,0,1-1.3-2.679C120.021,61.018,119.72,61.438,119.173,62.555Z" transform="translate(-63.002 -19.843)" style="fill: #94be4f"/>
    <path d="M121.324,75.4a1.527,1.527,0,0,0,1.006-1.454.763.763,0,0,0-.741-.814.738.738,0,0,0-.766.742.72.72,0,0,0,.73.742.708.708,0,0,0,.265-.052c-.093.281-.511.707-1.5.707-1.249,0-2.056.629-2.056,1.6a.762.762,0,0,0,.742.813.737.737,0,0,0,.765-.741.72.72,0,0,0-.73-.742.7.7,0,0,0-.262.051c.1-.287.577-.683,1.54-.683.912.011,1.374.513,1.374,1.493,0,1.011-.74,2.091-2.819,2.091-2.014,0-2.915-1.128-2.915-2.246a2.156,2.156,0,0,1,2.306-2.2h.335v-.112l.288-.024-.288-.048v-.116h-.24a1.456,1.456,0,0,1-1.528-1.636,1.545,1.545,0,0,1,1.636-1.661c1.054,0,1.5.464,1.592.765a.774.774,0,0,0-.266-.049.72.72,0,0,0-.729.741.7.7,0,0,0,.753.706.768.768,0,0,0,.754-.813c0-.823-.711-1.71-2.271-1.71s-2.63.861-2.63,2.092c0,.8.484,1.358,1.44,1.658-1.271.285-2.384,1.072-2.384,2.381,0,.773.4,2.57,4.147,2.57,2.733,0,3.956-1.249,3.956-2.486C122.832,76.2,122.269,75.631,121.324,75.4Z" transform="translate(-63.002 -19.843)" style="fill: #fff"/>
  </g>
</svg>
